<svg width="70" height="52" viewBox="0 0 70 52" fill="none" xmlns="http://www.w3.org/2000/svg">
<g id="Group 16">
<path id="Vector 1 (Stroke)" fill-rule="evenodd" clip-rule="evenodd" d="M27.445 0.634888H33.7998V3.52917H29.0866L26.1898 8.37373L32.5092 15.3702H45.552L49.8192 12.4365H66.7179V26.7384L64.9198 26.289C57.3254 24.3911 52.2619 24.8899 48.8036 27.1917C45.3314 29.5028 43.0783 33.8929 41.7551 40.761L41.529 41.9343H29.9136L29.7067 40.7327C28.507 33.7656 25.1333 29.6993 21.5194 27.4485C17.8453 25.1602 13.8649 24.7117 11.4873 25.1062C10.9602 25.1937 10.4442 25.0899 10.0595 24.9695C9.64755 24.8406 9.23726 24.6456 8.87057 24.4147C8.50834 24.1866 8.13636 23.8907 7.83778 23.5326C7.55843 23.1976 7.216 22.6533 7.216 21.958V15.3702H11.3236L14.3907 7.10242H23.5778L27.445 0.634888ZM23.7556 9.9967H16.404L13.337 18.2645H10.1103V21.7325C10.1749 21.7963 10.2756 21.8792 10.4127 21.9654C10.5877 22.0757 10.7717 22.1597 10.9237 22.2073C10.9905 22.2282 11.0386 22.2381 11.0669 22.2423C14.1407 21.748 18.8038 22.3474 23.0495 24.9918C27.1521 27.5469 30.8164 31.9805 32.3273 39.04H39.1526C40.5663 32.502 42.9998 27.5779 47.1999 24.7824C51.3171 22.042 56.7927 21.5693 63.8236 23.0645V15.3308H50.7182L46.4509 18.2645H31.2233L23.7556 9.9967ZM10.0369 21.647C10.0373 21.6471 10.0403 21.6511 10.0449 21.6591C10.0389 21.651 10.0366 21.647 10.0369 21.647Z" fill="#456492"/>
<path id="Ellipse 1 (Stroke)" fill-rule="evenodd" clip-rule="evenodd" d="M12.7304 30.7328C7.71141 30.7328 3.64276 34.8015 3.64276 39.8204C3.64276 44.8394 7.71141 48.908 12.7304 48.908C17.7493 48.908 21.818 44.8394 21.818 39.8204C21.818 34.8015 17.7493 30.7328 12.7304 30.7328ZM0.748474 39.8204C0.748474 33.203 6.11294 27.8386 12.7304 27.8386C19.3478 27.8386 24.7122 33.203 24.7122 39.8204C24.7122 46.4379 19.3478 51.8023 12.7304 51.8023C6.11294 51.8023 0.748474 46.4379 0.748474 39.8204Z" fill="#456492"/>
<path id="Ellipse 2 (Stroke)" fill-rule="evenodd" clip-rule="evenodd" d="M57.2696 30.7328C52.2507 30.7328 48.182 34.8015 48.182 39.8204C48.182 44.8394 52.2507 48.908 57.2696 48.908C62.2886 48.908 66.3572 44.8394 66.3572 39.8204C66.3572 34.8015 62.2886 30.7328 57.2696 30.7328ZM45.2878 39.8204C45.2878 33.203 50.6522 27.8386 57.2696 27.8386C63.887 27.8386 69.2515 33.203 69.2515 39.8204C69.2515 46.4379 63.887 51.8023 57.2696 51.8023C50.6522 51.8023 45.2878 46.4379 45.2878 39.8204Z" fill="#456492"/>
<path id="Ellipse 3" d="M34.8233 2.08203C34.8233 2.70804 34.3457 3.21552 33.7565 3.21552C33.1673 3.21552 32.6897 2.70804 32.6897 2.08203C32.6897 1.45603 33.1673 0.948547 33.7565 0.948547C34.3457 0.948547 34.8233 1.45603 34.8233 2.08203Z" fill="#456492"/>
</g>
</svg>
