<svg width="58" height="72" viewBox="0 0 58 72" fill="none" xmlns="http://www.w3.org/2000/svg">
<g id="Group 1">
<path id="Ellipse 1 (Stroke)" fill-rule="evenodd" clip-rule="evenodd" d="M29 67.4692C42.2881 67.4692 53.0602 56.6971 53.0602 43.4091C53.0602 30.121 42.2881 19.3489 29 19.3489C15.7119 19.3489 4.93982 30.121 4.93982 43.4091C4.93982 56.6971 15.7119 67.4692 29 67.4692ZM29 71.8941C44.7319 71.8941 57.485 59.1409 57.485 43.4091C57.485 27.6772 44.7319 14.924 29 14.924C13.2681 14.924 0.514954 27.6772 0.514954 43.4091C0.514954 59.1409 13.2681 71.8941 29 71.8941Z" fill="#456492"/>
<path id="Vector 4" d="M30.3828 25.1872V18.7958H28.1703V25.1872C28.1703 26.2525 30.3828 26.2525 30.3828 25.1872Z" fill="#456492"/>
<path id="Vector 5" d="M28.1703 61.6309V68.0223H30.3828V61.6309C30.3828 60.5656 28.1703 60.5656 28.1703 61.6309Z" fill="#456492"/>
<path id="Vector 6" d="M11.3313 42.5794H4.93982V44.7918H11.3313C12.3965 44.7918 12.3965 42.5794 11.3313 42.5794Z" fill="#456492"/>
<path id="Vector 7" d="M46.6687 44.7918H53.0602V42.5794H46.6687C45.6035 42.5794 45.6035 44.7918 46.6687 44.7918Z" fill="#456492"/>
<path id="Ellipse 2 (Stroke)" fill-rule="evenodd" clip-rule="evenodd" d="M29.2766 46.4512C31.1094 46.4512 32.5952 44.9654 32.5952 43.1325C32.5952 41.2997 31.1094 39.8139 29.2766 39.8139C27.4437 39.8139 25.9579 41.2997 25.9579 43.1325C25.9579 44.9654 27.4437 46.4512 29.2766 46.4512ZM29.2766 49.2167C32.6368 49.2167 35.3608 46.4927 35.3608 43.1325C35.3608 39.7723 32.6368 37.0483 29.2766 37.0483C25.9164 37.0483 23.1924 39.7723 23.1924 43.1325C23.1924 46.4927 25.9164 49.2167 29.2766 49.2167Z" fill="#456492"/>
<path id="Vector 2" d="M29.887 49.0723L15.8184 56.3843L23.6168 42.5794L29.887 49.0723Z" fill="#456492"/>
<path id="Vector 3" d="M28.7234 37.0977L42.792 29.7857L34.9936 43.5906L28.7234 37.0977Z" fill="#456492"/>
<path id="Ellipse 3 (Stroke)" fill-rule="evenodd" clip-rule="evenodd" d="M29 9.94604C30.9856 9.94604 32.5952 8.33642 32.5952 6.35084C32.5952 4.36527 30.9856 2.75564 29 2.75564C27.0144 2.75564 25.4048 4.36527 25.4048 6.35084C25.4048 8.33642 27.0144 9.94604 29 9.94604ZM29 12.1585C32.2075 12.1585 34.8076 9.55831 34.8076 6.35084C34.8076 3.14338 32.2075 0.543213 29 0.543213C25.7925 0.543213 23.1924 3.14338 23.1924 6.35084C23.1924 9.55831 25.7925 12.1585 29 12.1585Z" fill="#456492"/>
<path id="Vector 8" d="M32.5952 15.4771V10.7757H25.4048V15.4771H32.5952Z" fill="#456492"/>
</g>
</svg>
